PathFileType	4	(X/Y/Z)	/Users/itak/Documents/Research/Walk-IL/dataset/trc/00357_00011.trc
DataRate	CameraRate	NumFrames	NumMarkers	Units	OrigDataRate	OrigDataStartFrame	OrigNumFrames
100.000000	100.000000	4	59	mm	100.000000	107	430
Frame#	Time	RPSI			LPSI			L3			STRN			T10			C7			CLAV			RBAK			LBAK			LSHO			LUPA			LAEL			LAOL			LWTS			LWPS			LFRA			LHPS			LHTS			RSHO			RUPA			RAEL			RAOL			RWTS			RWPS			RFRA			RIFD			RHTS			RHPS			RBHD			LFHD			RFHD			LBHD			RHIP			RASI			LASI			LKNE			LTHI			LANK			LTIP			LTOE			LMT1			LMT5			LHEE			RKNE			RTHI			RANK			RTIP			RTOE			RMT5			RHEE			LIFD			LHIP			RMT1			*53			*54			*55			*56			*57			*58			
		X1	Y1	Z1	X2	Y2	Z2	X3	Y3	Z3	X4	Y4	Z4	X5	Y5	Z5	X6	Y6	Z6	X7	Y7	Z7	X8	Y8	Z8	X9	Y9	Z9	X10	Y10	Z10	X11	Y11	Z11	X12	Y12	Z12	X13	Y13	Z13	X14	Y14	Z14	X15	Y15	Z15	X16	Y16	Z16	X17	Y17	Z17	X18	Y18	Z18	X19	Y19	Z19	X20	Y20	Z20	X21	Y21	Z21	X22	Y22	Z22	X23	Y23	Z23	X24	Y24	Z24	X25	Y25	Z25	X26	Y26	Z26	X27	Y27	Z27	X28	Y28	Z28	X29	Y29	Z29	X30	Y30	Z30	X31	Y31	Z31	X32	Y32	Z32	X33	Y33	Z33	X34	Y34	Z34	X35	Y35	Z35	X36	Y36	Z36	X37	Y37	Z37	X38	Y38	Z38	X39	Y39	Z39	X40	Y40	Z40	X41	Y41	Z41	X42	Y42	Z42	X43	Y43	Z43	X44	Y44	Z44	X45	Y45	Z45	X46	Y46	Z46	X47	Y47	Z47	X48	Y48	Z48	X49	Y49	Z49	X50	Y50	Z50	X51	Y51	Z51	X52	Y52	Z52	X53	Y53	Z53	X54	Y54	Z54	X55	Y55	Z55	X56	Y56	Z56	X57	Y57	Z57	X58	Y58	Z58	X59	Y59	Z59	

108	1.07	-771.4212036132812	965.0509643554688	790.0092163085938	-767.5734252929688	972.3887329101562	659.6282958984375	-767.981689453125	1035.8984375	725.0123901367188	-530.9176025390625	1210.715087890625	722.6917724609375	-771.3521118164062	1154.1318359375	716.2605590820312	-725.7149658203125	1401.460205078125	699.31005859375	-570.1090698242188	1338.27978515625	713.9583740234375	-779.292236328125	1265.214233398438	766.6550903320312	-732.6296997070312	1362.278198242188	596.9657592773438	-643.1598510742188	1375.003051757812	546.6761474609375	-660.87109375	1258.91357421875	474.6121826171875	-639.6445922851562	1057.70703125	444.8915100097656	-705.1697387695312	1038.098754882812	496.0375061035156	-522.4315185546875	827.4454956054688	481.8976745605469	-556.7719116210938	814.8087158203125	423.4085998535156	-616.42138671875	955.2207641601562	430.6494445800781	-550.5944213867188	745.3455810546875	425.2750549316406	-499.1503295898438	752.7957763671875	461.362060546875	-675.8937377929688	1388.752319335938	865.8665161132812	-693.3427734375	1323.9892578125	928.8762817382812	-693.3670043945312	1055.98681640625	965.7236328125	-725.2249145507812	1049.634887695312	876.957275390625	-559.4851684570312	842.4403076171875	924.2977905273438	-602.6838989257812	817.4778442382812	983.3239135742188	-666.890380859375	988.5606689453125	976.087646484375	-527.3449096679688	671.7804565429688	925.1616821289062	-520.221435546875	745.6478881835938	938.0440063476562	-575.9556274414062	737.113037109375	976.9807739257812	-658.1477661132812	1606.87548828125	788.1724243164062	-512.9984741210938	1606.808227539062	639.1341552734375	-502.8861389160156	1610.590087890625	739.6434326171875	-699.1177978515625	1598.29736328125	649.83447265625	-692.5322265625	911.0415649414062	899.5479736328125	-587.2574462890625	941.7489013671875	857.887939453125	-558.3916625976562	941.8023071289062	620.5167236328125	-570.1986083984375	459.7002868652344	619.0216064453125	-590.2362670898438	597.846435546875	590.4178466796875	-681.2136840820312	47.38594818115234	663.775146484375	-618.5263061523438	238.8780975341797	630.2596435546875	-475.6414489746094	45.54034805297852	722.1267700195312	-544.1980590820312	31.56681251525879	765.4508666992188	-556.4481811523438	42.61305236816406	651.681640625	-713.4718627929688	46.05029678344727	731.6261596679688	-530.4558715820312	478.4460754394531	908.9542846679688	-580.78125	721.5606689453125	919.5100708007812	-857.0228881835938	209.6898040771484	895.6319580078125	-591.7267456054688	373.5782470703125	901.905517578125	-754.5150146484375	49.08591079711914	844.2948608398438	-789.399658203125	92.21902465820312	802.9940185546875	-884.11767578125	252.5404357910156	848.6051635742188	-496.60498046875	667.2258911132812	469.9505004882812	-678.1307983398438	918.9031372070312	555.6865234375	-816.907958984375	115.8022994995117	914.052490234375	nan	nan	nan	nan	nan	nan	nan	nan	nan	nan	nan	nan	nan	nan	nan	nan	nan	nan	
109	1.08	-762.7648315429688	965.3463134765625	789.8796997070312	-760.138671875	972.5590209960938	659.4802856445312	-760.6051635742188	1036.470825195312	724.4146118164062	-523.2824096679688	1211.491333007812	720.8291625976562	-763.7236938476562	1154.62890625	715.3911743164062	-718.2339477539062	1402.030395507812	698.4268798828125	-562.5401611328125	1338.967529296875	712.55908203125	-771.547607421875	1265.705078125	765.7491455078125	-725.38037109375	1362.98388671875	595.9951171875	-636.0265502929688	1375.947143554688	545.594482421875	-652.8946533203125	1259.855834960938	473.3352661132812	-628.4197998046875	1059.197143554688	442.5274353027344	-693.473388671875	1038.177124023438	493.8135070800781	-506.2143859863281	831.5509033203125	478.299560546875	-540.6615600585938	818.3169555664062	419.8949890136719	-603.2685546875	957.2955322265625	427.845947265625	-532.7257690429688	749.0397338867188	421.4584655761719	-481.2117614746094	757.580322265625	457.3880004882812	-667.9463500976562	1389.20458984375	864.7800903320312	-685.2201538085938	1324.473754882812	927.8167114257812	-685.31689453125	1056.561889648438	965.1104736328125	-717.2591552734375	1050.076293945312	876.4115600585938	-551.50830078125	843.0908813476562	924.5489501953125	-595.2457885742188	817.6253662109375	982.9614868164062	-659.0034790039062	989.0813598632812	975.5635986328125	-519.2137451171875	672.34912109375	924.7962646484375	-512.3845825195312	746.0145874023438	937.7778930664062	-568.5001220703125	737.3904418945312	976.5184936523438	-649.8469848632812	1607.492309570312	787.0660400390625	-505.0533142089844	1607.072998046875	637.6778564453125	-494.6867065429688	1610.868896484375	738.1815185546875	-691.1695556640625	1598.982543945312	648.799560546875	-682.3281860351562	912.1442260742188	898.6406860351562	-577.6426391601562	943.0957641601562	855.5047607421875	-551.2655029296875	942.250732421875	617.8958740234375	-568.6885986328125	459.033203125	617.5360107421875	-587.4100952148438	597.526123046875	589.1053466796875	-681.1740112304688	47.44535446166992	663.6909790039062	-618.045166015625	238.6598510742188	629.6229248046875	-475.6468811035156	45.5545654296875	722.0217895507812	-544.1943359375	31.74037170410156	765.2935180664062	-556.4730834960938	42.54547500610352	651.5870971679688	-713.5624389648438	46.19459915161133	731.6492309570312	-511.72412109375	481.8067932128906	905.2656860351562	-567.7701416015625	724.1900634765625	917.4082641601562	-830.1258544921875	202.4522552490234	893.2692260742188	-570.25244140625	375.6767578125	898.453857421875	-717.5530395507812	48.20724105834961	843.1937866210938	-754.57470703125	89.17794799804688	801.8382568359375	-859.40087890625	243.7536926269531	846.0626831054688	-476.6855163574219	672.0009765625	465.44287109375	-671.8474731445312	918.9202270507812	554.5863037109375	-784.0020141601562	111.8406600952148	912.4552612304688	nan	nan	nan	nan	nan	nan	nan	nan	nan	nan	nan	nan	nan	nan	nan	nan	nan	nan	
110	1.09	-754.0836181640625	965.598876953125	789.8173828125	-752.6913452148438	972.6690063476562	659.4229736328125	-753.2993774414062	1036.962646484375	723.8955688476562	-515.6220703125	1212.1748046875	718.8673095703125	-756.1475830078125	1155.03955078125	714.6029052734375	-710.754150390625	1402.5009765625	697.5928344726562	-554.965087890625	1339.541381835938	711.1099853515625	-763.7804565429688	1266.09375	764.9296264648438	-718.1846313476562	1363.601196289062	595.0751342773438	-628.978271484375	1376.809936523438	544.49560546875	-645.0546875	1260.711303710938	472.06396484375	-617.5265502929688	1060.62744140625	440.264404296875	-681.95068359375	1038.220336914062	491.8369445800781	-490.2639770507812	835.7232055664062	474.7759399414062	-524.9563598632812	821.81884765625	416.5335388183594	-590.4507446289062	959.3472900390625	425.1990966796875	-515.2875366210938	752.7650146484375	417.864013671875	-463.6694030761719	762.4301147460938	453.5201721191406	-659.8973999023438	1389.531860351562	863.7066650390625	-676.9619140625	1324.8408203125	926.7830810546875	-677.2005004882812	1057.038696289062	964.61083984375	-709.297119140625	1050.390747070312	876.0106811523438	-543.5337524414062	843.652587890625	925.0897827148438	-587.9229125976562	817.5321655273438	982.6802978515625	-651.107666015625	989.4822387695312	975.1442260742188	-511.0224304199219	672.85498046875	924.3223266601562	-504.5547485351562	746.2355346679688	937.5748901367188	-561.1303100585938	737.4430541992188	975.9896850585938	-641.5567016601562	1608.002563476562	785.9738159179688	-497.1234130859375	1607.2421875	636.2355346679688	-486.5038452148438	1611.033203125	736.736572265625	-683.234130859375	1599.593139648438	647.7842407226562	-672.1145629882812	913.2099609375	897.7469482421875	-568.0359497070312	944.351806640625	853.1647338867188	-544.179931640625	942.6131591796875	615.3499755859375	-567.212890625	458.4235534667969	616.04736328125	-584.513916015625	597.2696533203125	587.8355712890625	-681.1556396484375	47.5	663.5936279296875	-617.5630493164062	238.4486389160156	628.9957885742188	-475.6568908691406	45.59088516235352	721.9111938476562	-544.1681518554688	31.95192337036133	765.1027221679688	-556.49365234375	42.48318099975586	651.4859008789062	-713.7032470703125	46.37379837036133	731.6273803710938	-493.6568603515625	485.0551452636719	901.4473876953125	-555.0771484375	726.9381713867188	915.504638671875	-802.73291015625	194.3299102783203	890.7943115234375	-549.175537109375	377.5426635742188	894.936767578125	-680.0081176757812	47.39966201782227	842.0905151367188	-719.1820068359375	85.84559631347656	800.6015014648438	-833.9652099609375	233.9541015625	843.399658203125	-457.1361083984375	676.94140625	461.1286010742188	-665.508544921875	918.884521484375	553.6294555664062	-750.607666015625	107.4740295410156	910.7981567382812	nan	nan	nan	nan	nan	nan	nan	nan	nan	nan	nan	nan	nan	nan	nan	nan	nan	nan	
111	1.1	-745.37353515625	965.8021240234375	789.8283081054688	-745.234375	972.7206420898438	659.4569702148438	-746.0578002929688	1037.376586914062	723.4603271484375	-507.9299926757812	1212.739379882812	716.8346557617188	-748.5947875976562	1155.359497070312	713.8908081054688	-703.2598876953125	1402.8623046875	696.7984008789062	-547.3753051757812	1339.993896484375	709.6148681640625	-755.9838256835938	1266.373657226562	764.1990966796875	-711.0303955078125	1364.116088867188	594.2033081054688	-622.0023193359375	1377.570068359375	543.378662109375	-637.3360595703125	1261.45654296875	470.7891235351562	-606.965087890625	1061.960693359375	438.0784912109375	-670.6192626953125	1038.197631835938	490.0562744140625	-474.6110229492188	839.9382934570312	471.3463134765625	-509.6369934082031	825.2734375	413.3436889648438	-577.9595947265625	961.337646484375	422.6946411132812	-498.2717895507812	756.4837036132812	414.4993286132812	-446.553466796875	767.3020629882812	449.783935546875	-651.7427368164062	1389.727661132812	862.6469116210938	-668.5701293945312	1325.077270507812	925.7769165039062	-669.0318603515625	1057.399780273438	964.2003173828125	-701.3306884765625	1050.573120117188	875.710205078125	-535.5030517578125	844.1500854492188	925.939453125	-580.7166748046875	817.200927734375	982.4409790039062	-643.2203979492188	989.7492065429688	974.814453125	-502.6376342773438	673.3441162109375	923.7472534179688	-496.6622009277344	746.3463745117188	937.4700927734375	-553.7937622070312	737.2686767578125	975.342041015625	-633.2725219726562	1608.400268554688	784.8945922851562	-489.2080078125	1607.3173828125	634.80078125	-478.3329162597656	1611.082397460938	735.299560546875	-675.3118286132812	1600.118530273438	646.795166015625	-661.9022216796875	914.2356567382812	896.8925170898438	-558.4320678710938	945.4966430664062	850.8607177734375	-537.1105346679688	942.902587890625	612.8858642578125	-565.7467651367188	457.8683166503906	614.5678100585938	-581.5040283203125	597.0549926757812	586.62939453125	-681.1703491210938	47.53505706787109	663.4884033203125	-617.0550537109375	238.252685546875	628.36767578125	-475.6705627441406	45.65035247802734	721.7921142578125	-544.1141967773438	32.19354248046875	764.8823852539062	-556.5082397460938	42.42555999755859	651.3735961914062	-713.878173828125	46.59406661987305	731.57421875	-476.2618103027344	488.1569213867188	897.5305786132812	-542.6386108398438	729.7877807617188	913.8091430664062	-774.7328491210938	185.4727172851562	888.2274169921875	-528.4834594726562	379.1191711425781	891.3694458007812	-642.0592651367188	46.74211502075195	840.9703979492188	-683.4199829101562	82.23554229736328	799.2059936523438	-807.7606811523438	223.245849609375	840.6142578125	-437.9823303222656	682.0069580078125	457.0531311035156	-659.1370239257812	918.7883911132812	552.818359375	-716.73779296875	102.7918243408203	909.0548706054688	nan	nan	nan	nan	nan	nan	nan	nan	nan	nan	nan	nan	nan	nan	nan	nan	nan	nan	
